G04 ================== begin FILE IDENTIFICATION RECORD ==================*
G04 Layout Name:  D:/Cadence/Summer_Circruit/worklib/demo/physical/board.brd*
G04 Film Name:    BOTTOM*
G04 File Format:  Gerber RS274X*
G04 File Origin:  Cadence Allegro 16.6-2015-S108*
G04 Origin Date:  Tue Jul 11 11:17:08 2023*
G04 *
G04 Layer:  VIA CLASS/BOTTOM*
G04 Layer:  PIN/BOTTOM*
G04 Layer:  ETCH/BOTTOM*
G04 Layer:  BOARD GEOMETRY/OUTLINE*
G04 *
G04 Offset:    (0 0)*
G04 Mirror:    No*
G04 Mode:      Positive*
G04 Rotation:  0*
G04 FullContactRelief:  No*
G04 UndefLineWidth:     10*
G04 ================== end FILE IDENTIFICATION RECORD ====================*
%FSLAX25Y25*MOIN*%
%IR0*IPPOS*OFA0.00000B0.00000*MIA0B0*SFA1.00000B1.00000*%
%ADD12C,.024*%
%ADD10C,.07*%
%ADD11R,.07X.07*%
%ADD14O,.07X.055*%
%ADD13R,.07X.055*%
%ADD15C,.01*%
%ADD16C,.04*%
G75*
%LPD*%
G75*
G54D10*
X-171900Y-162100D03*
Y-152100D03*
X-165100Y-47100D03*
Y-29100D03*
X-174000Y0D03*
Y10000D03*
Y20000D03*
Y30000D03*
X-143200Y-152200D03*
X-139100Y-29100D03*
X-134000Y170000D03*
X-144000D03*
X-154000D03*
X-123200Y-152200D03*
X-100100Y-160100D03*
Y-152100D03*
X-112400Y-128200D03*
X-100100Y-144100D03*
X-112400Y-113200D03*
Y-98700D03*
Y-83700D03*
X-104000Y170000D03*
X-114000D03*
X-124000D03*
X-80100Y-160100D03*
Y-152100D03*
X-71300Y-119000D03*
X-80100Y-144100D03*
X-71300Y-99000D03*
X-92800Y-63400D03*
X-94000Y170000D03*
X-44000Y-180000D03*
X-52800Y-63400D03*
X-22000Y-180000D03*
X-33000D03*
X-13000Y-149000D03*
X-28000D03*
X-29100Y-125200D03*
Y-115200D03*
Y-105200D03*
Y-95200D03*
Y-85200D03*
Y-75200D03*
Y-65200D03*
Y-55200D03*
Y-45200D03*
Y-35200D03*
Y-25200D03*
Y-15200D03*
Y-5200D03*
Y4800D03*
Y14800D03*
Y24800D03*
Y34800D03*
Y44800D03*
Y54800D03*
Y64800D03*
X-10700Y82800D03*
X-20700D03*
Y179800D03*
X-10700D03*
X23000Y-149000D03*
X8000D03*
X19300Y82800D03*
X9300D03*
X-700D03*
Y179800D03*
X9300D03*
X19300D03*
X30900Y-125200D03*
Y-95200D03*
Y-105200D03*
Y-115200D03*
Y-65200D03*
Y-75200D03*
Y-85200D03*
Y-35200D03*
Y-45200D03*
Y-55200D03*
Y-5200D03*
Y-15200D03*
Y-25200D03*
Y24800D03*
Y14800D03*
Y4800D03*
Y54800D03*
Y44800D03*
Y34800D03*
Y64800D03*
X83300Y-112300D03*
X123300D03*
X136300Y-78600D03*
X133000Y-55300D03*
Y-45300D03*
Y-35300D03*
Y-25300D03*
Y-15300D03*
Y-5300D03*
Y4700D03*
Y14700D03*
Y24700D03*
Y34700D03*
Y44700D03*
Y54700D03*
Y64700D03*
Y74700D03*
Y84700D03*
Y94700D03*
X168300Y-132000D03*
Y-112000D03*
X176300Y-78600D03*
G54D11*
X-139100Y-47100D03*
G54D12*
X-145900Y70500D03*
G54D13*
X-108000Y3000D03*
G54D14*
Y-7000D03*
G54D15*
G01X-29100Y-25200D02*
X-40900D01*
X-86100Y20000D01*
X-174000D01*
G01X-29100Y-35200D02*
X-44200D01*
X-89400Y10000D01*
X-174000D01*
G01X-29100Y24800D02*
X-133700Y129400D01*
Y165400D01*
X-134000Y165800D01*
Y170000D01*
G01X-112400Y-128200D02*
X-103200Y-119000D01*
X-71300D01*
G01X-112400Y-113200D02*
Y-98700D01*
G01Y-83700D02*
X-86600D01*
X-71300Y-99000D01*
G01X-29100Y44800D02*
X-114500Y130200D01*
Y165200D01*
X-114000Y165800D01*
Y170000D01*
G01X-29100Y34800D02*
X-124200Y129900D01*
Y165600D01*
X-124000Y165800D01*
Y170000D01*
G01X-29100Y54800D02*
X-104100Y129800D01*
Y165600D01*
X-104000Y165800D01*
Y170000D01*
G01X-71300Y-119000D02*
X-37200D01*
X-33400Y-115200D01*
X-29100D01*
G01X-71300Y-99000D02*
X-65100Y-105200D01*
X-29100D01*
G01Y64800D02*
X-94300Y130000D01*
Y165400D01*
X-94000Y165800D01*
Y170000D01*
G01X19300Y82800D02*
Y43200D01*
X-29100Y-5200D01*
G01X-10700Y82800D02*
Y43200D01*
X-29100Y24800D01*
G01X-700Y82800D02*
Y43200D01*
X-29100Y14800D01*
G01X9300Y82800D02*
Y43200D01*
X-29100Y4800D01*
G01X-20700Y82800D02*
Y43200D01*
X-29100Y34800D01*
G01X30900Y-125200D02*
X53800D01*
X123700Y-55300D01*
X133000D01*
G01Y-45300D02*
X118300D01*
X48400Y-115200D01*
X30900D01*
G01X133000Y-35300D02*
X113900D01*
X44000Y-105200D01*
X30900D01*
G01X133000Y-25300D02*
X111800D01*
X41900Y-95200D01*
X30900D01*
G01X133000Y-15300D02*
X109900D01*
X40000Y-85200D01*
X30900D01*
G01X133000Y-5300D02*
X109800D01*
X39900Y-75200D01*
X30900D01*
G01X133000Y4700D02*
X110200D01*
X40300Y-65200D01*
X30900D01*
G01X133000Y14700D02*
X110600D01*
X40700Y-55200D01*
X30900D01*
G01X133000Y34700D02*
X102700D01*
X62800Y-5200D01*
X30900D01*
G01X133000Y24700D02*
X105400D01*
X65500Y-15200D01*
X30900D01*
G01X133000Y64700D02*
X104500D01*
X64600Y24800D01*
X30900D01*
G01X133000Y54700D02*
X101600D01*
X61700Y14800D01*
X30900D01*
G01X133000Y44700D02*
X101500D01*
X61600Y4800D01*
X30900D01*
G01X133000Y94700D02*
X101100D01*
X61200Y54800D01*
X30900D01*
G01X133000Y84700D02*
X99800D01*
X61900Y46800D01*
X31900D01*
X30900Y45800D01*
Y44800D01*
G01X133000Y74700D02*
X103000D01*
X63100Y34800D01*
X30900D01*
G01X-196800Y-196800D02*
Y196800D01*
X196800D01*
Y-196800D01*
X-196800D01*
G54D16*
G01X-171900Y-152100D02*
X-149300D01*
X-149200Y-152200D01*
X-143200D01*
G01X-174000Y30000D02*
Y42400D01*
X-145900Y70500D01*
G01X-139100Y-47100D02*
X-121000D01*
X-108000Y-34100D01*
Y-7000D01*
G01Y3000D02*
X-122300D01*
X-139100Y-13800D01*
Y-29100D01*
G01X-144000Y170000D02*
Y72400D01*
X-145900Y70500D01*
G01X-20700Y179800D02*
X-28500Y187600D01*
X-137000D01*
X-144000Y180600D01*
Y170000D01*
G01X-44000Y-180000D02*
X-80200D01*
X-100100Y-160100D01*
G01X-123200Y-152200D02*
X-106200D01*
X-106100Y-152100D01*
X-100100D01*
G01X-28000Y-149000D02*
X-44000Y-165000D01*
Y-180000D01*
G01X-22000D02*
X-22300Y-179700D01*
Y-170500D01*
X-800Y-149000D01*
X8000D01*
G01X-29100Y-125200D02*
X-22300Y-118400D01*
X-7600D01*
X23000Y-149000D01*
G01X-20700Y179800D02*
X-9800Y190700D01*
X8400D01*
X19300Y179800D01*
G01D02*
X30900Y168200D01*
Y64800D01*
G01X176300Y-78600D02*
Y83600D01*
X145300Y114600D01*
X97400D01*
X47600Y64800D01*
X30900D01*
M02*
