G04 ================== begin FILE IDENTIFICATION RECORD ==================*
G04 Layout Name:  D:/Cadence/Summer_Circruit/worklib/demo/physical/board.brd*
G04 Film Name:    DRILL*
G04 File Format:  Gerber RS274X*
G04 File Origin:  Cadence Allegro 16.6-2015-S108*
G04 Origin Date:  Tue Jul 11 11:20:17 2023*
G04 *
G04 Layer:  MANUFACTURING/NCDRILL_LEGEND*
G04 Layer:  MANUFACTURING/NCDRILL_FIGURE*
G04 Layer:  BOARD GEOMETRY/OUTLINE*
G04 Layer:  MANUFACTURING/NCLEGEND-1-2*
G04 *
G04 Offset:    (0 0)*
G04 Mirror:    No*
G04 Mode:      Positive*
G04 Rotation:  0*
G04 FullContactRelief:  No*
G04 UndefLineWidth:     10*
G04 ================== end FILE IDENTIFICATION RECORD ====================*
%FSLAX25Y25*MOIN*%
%IR0*IPPOS*OFA0.00000B0.00000*MIA0B0*SFA1.00000B1.00000*%
%AMMACRO12*
1,1,.01,.025,0.0*
20,1,.01,.025,0.0,.02462,-.004341,0.0*
1,1,.01,.02462,-.004341*
20,1,.01,.02462,-.004341,.023492,-.008551,0.0*
1,1,.01,.023492,-.008551*
20,1,.01,.023492,-.008551,.021651,-.0125,0.0*
1,1,.01,.021651,-.0125*
20,1,.01,.021651,-.0125,.019151,-.01607,0.0*
1,1,.01,.019151,-.01607*
20,1,.01,.019151,-.01607,.01607,-.019151,0.0*
1,1,.01,.01607,-.019151*
20,1,.01,.01607,-.019151,.0125,-.021651,0.0*
1,1,.01,.0125,-.021651*
20,1,.01,.0125,-.021651,.008551,-.023492,0.0*
1,1,.01,.008551,-.023492*
20,1,.01,.008551,-.023492,.004341,-.02462,0.0*
1,1,.01,.004341,-.02462*
20,1,.01,.004341,-.02462,0.0,-.025,0.0*
1,1,.01,0.0,-.025*
20,1,.01,0.0,-.025,-.004341,-.02462,0.0*
1,1,.01,-.004341,-.02462*
20,1,.01,-.004341,-.02462,-.008551,-.023492,0.0*
1,1,.01,-.008551,-.023492*
20,1,.01,-.008551,-.023492,-.0125,-.021651,0.0*
1,1,.01,-.0125,-.021651*
20,1,.01,-.0125,-.021651,-.01607,-.019151,0.0*
1,1,.01,-.01607,-.019151*
20,1,.01,-.01607,-.019151,-.019151,-.01607,0.0*
1,1,.01,-.019151,-.01607*
20,1,.01,-.019151,-.01607,-.021651,-.0125,0.0*
1,1,.01,-.021651,-.0125*
20,1,.01,-.021651,-.0125,-.023492,-.008551,0.0*
1,1,.01,-.023492,-.008551*
20,1,.01,-.023492,-.008551,-.02462,-.004341,0.0*
1,1,.01,-.02462,-.004341*
20,1,.01,-.02462,-.004341,-.025,0.0,0.0*
1,1,.01,-.025,0.0*
20,1,.01,-.025,0.0,-.02462,.004341,0.0*
1,1,.01,-.02462,.004341*
20,1,.01,-.02462,.004341,-.023492,.008551,0.0*
1,1,.01,-.023492,.008551*
20,1,.01,-.023492,.008551,-.021651,.0125,0.0*
1,1,.01,-.021651,.0125*
20,1,.01,-.021651,.0125,-.019151,.01607,0.0*
1,1,.01,-.019151,.01607*
20,1,.01,-.019151,.01607,-.01607,.019151,0.0*
1,1,.01,-.01607,.019151*
20,1,.01,-.01607,.019151,-.0125,.021651,0.0*
1,1,.01,-.0125,.021651*
20,1,.01,-.0125,.021651,-.008551,.023492,0.0*
1,1,.01,-.008551,.023492*
20,1,.01,-.008551,.023492,-.004341,.02462,0.0*
1,1,.01,-.004341,.02462*
20,1,.01,-.004341,.02462,0.0,.025,0.0*
1,1,.01,0.0,.025*
20,1,.01,0.0,.025,.004341,.02462,0.0*
1,1,.01,.004341,.02462*
20,1,.01,.004341,.02462,.008551,.023492,0.0*
1,1,.01,.008551,.023492*
20,1,.01,.008551,.023492,.0125,.021651,0.0*
1,1,.01,.0125,.021651*
20,1,.01,.0125,.021651,.01607,.019151,0.0*
1,1,.01,.01607,.019151*
20,1,.01,.01607,.019151,.019151,.01607,0.0*
1,1,.01,.019151,.01607*
20,1,.01,.019151,.01607,.021651,.0125,0.0*
1,1,.01,.021651,.0125*
20,1,.01,.021651,.0125,.023492,.008551,0.0*
1,1,.01,.023492,.008551*
20,1,.01,.023492,.008551,.02462,.004341,0.0*
1,1,.01,.02462,.004341*
20,1,.01,.02462,.004341,.025,0.0,0.0*
1,1,.01,.025,0.0*
1,1,.01,.0125,0.0*
20,1,.01,.0125,0.0,-.0125,0.0,0.0*
1,1,.01,-.0125,0.0*
1,1,.01,0.0,.0125*
20,1,.01,0.0,.0125,0.0,-.0125,0.0*
1,1,.01,0.0,-.0125*
%
%ADD12MACRO12*%
%AMMACRO13*
1,1,.01,.02,0.0*
20,1,.01,.02,0.0,.01,.017321,0.0*
1,1,.01,.01,.017321*
20,1,.01,.01,.017321,-.01,.017321,0.0*
1,1,.01,-.01,.017321*
20,1,.01,-.01,.017321,-.02,0.0,0.0*
1,1,.01,-.02,0.0*
20,1,.01,-.02,0.0,-.01,-.017321,0.0*
1,1,.01,-.01,-.017321*
20,1,.01,-.01,-.017321,.01,-.017321,0.0*
1,1,.01,.01,-.017321*
20,1,.01,.01,-.017321,.02,0.0,0.0*
1,1,.01,.02,0.0*
%
%ADD13MACRO13*%
%AMMACRO10*
1,1,.01,.05,0.0*
20,1,.01,.05,0.0,-.05,0.0,0.0*
1,1,.01,-.05,0.0*
1,1,.01,0.0,.05*
20,1,.01,0.0,.05,0.0,-.05,0.0*
1,1,.01,0.0,-.05*
1,1,.01,.011,0.0*
20,1,.01,.011,0.0,.011,.05,0.0*
1,1,.01,.011,.05*
1,1,.01,.011,.026*
20,1,.01,.011,.026,.015,.03,0.0*
1,1,.01,.015,.03*
20,1,.01,.015,.03,.019,.032,0.0*
1,1,.01,.019,.032*
20,1,.01,.019,.032,.026,.033,0.0*
1,1,.01,.026,.033*
20,1,.01,.026,.033,.031,.032,0.0*
1,1,.01,.031,.032*
20,1,.01,.031,.032,.037,.029,0.0*
1,1,.01,.037,.029*
20,1,.01,.037,.029,.039,.024,0.0*
1,1,.01,.039,.024*
20,1,.01,.039,.024,.039,0.0,0.0*
1,1,.01,.039,0.0*
%
%ADD10MACRO10*%
%AMMACRO11*
1,1,.01,.05,0.0*
20,1,.01,.05,0.0,-.05,0.0,0.0*
1,1,.01,-.05,0.0*
1,1,.01,0.0,.05*
20,1,.01,0.0,.05,0.0,-.05,0.0*
1,1,.01,0.0,-.05*
1,1,.01,.012,-.013*
20,1,.01,.012,-.013,.017,-.016,0.0*
1,1,.01,.017,-.016*
20,1,.01,.017,-.016,.022,-.017,0.0*
1,1,.01,.022,-.017*
20,1,.01,.022,-.017,.029,-.015,0.0*
1,1,.01,.029,-.015*
20,1,.01,.029,-.015,.034,-.011,0.0*
1,1,.01,.034,-.011*
20,1,.01,.034,-.011,.037,-.003,0.0*
1,1,.01,.037,-.003*
20,1,.01,.037,-.003,.037,.033,0.0*
1,1,.01,.037,.033*
1,1,.01,.037,.047*
20,1,.01,.037,.047,.035,.047,0.0*
1,1,.01,.035,.047*
20,1,.01,.035,.047,.035,.049,0.0*
1,1,.01,.035,.049*
20,1,.01,.035,.049,.037,.05,0.0*
1,1,.01,.037,.05*
20,1,.01,.037,.05,.038,.049,0.0*
1,1,.01,.038,.049*
20,1,.01,.038,.049,.038,.047,0.0*
1,1,.01,.038,.047*
20,1,.01,.038,.047,.037,.047,0.0*
1,1,.01,.037,.047*
%
%ADD11MACRO11*%
%ADD14C,.01*%
G75*
%LPD*%
G75*
G54D10*
X-171900Y-162100D03*
Y-152100D03*
X-174000Y0D03*
Y10000D03*
Y20000D03*
Y30000D03*
X-143200Y-152200D03*
X-134000Y170000D03*
X-144000D03*
X-154000D03*
X-123200Y-152200D03*
X-100100Y-160100D03*
Y-152100D03*
X-112400Y-128200D03*
X-100100Y-144100D03*
X-112400Y-113200D03*
Y-98700D03*
Y-83700D03*
X-108000Y3000D03*
Y-7000D03*
X-104000Y170000D03*
X-114000D03*
X-124000D03*
X-80100Y-160100D03*
Y-152100D03*
X-71300Y-119000D03*
X-80100Y-144100D03*
X-71300Y-99000D03*
X-92800Y-63400D03*
X-94000Y170000D03*
X-52800Y-63400D03*
X-13000Y-149000D03*
X-28000D03*
X-29100Y-125200D03*
Y-115200D03*
Y-105200D03*
Y-95200D03*
Y-85200D03*
Y-75200D03*
Y-65200D03*
Y-55200D03*
Y-45200D03*
Y-35200D03*
Y-25200D03*
Y-15200D03*
Y-5200D03*
Y4800D03*
Y14800D03*
Y24800D03*
Y34800D03*
Y44800D03*
Y54800D03*
Y64800D03*
X-10700Y82800D03*
X-20700D03*
Y179800D03*
X-10700D03*
X23000Y-149000D03*
X8000D03*
X19300Y82800D03*
X9300D03*
X-700D03*
Y179800D03*
X9300D03*
X19300D03*
X30900Y-125200D03*
Y-95200D03*
Y-105200D03*
Y-115200D03*
Y-65200D03*
Y-75200D03*
Y-85200D03*
Y-35200D03*
Y-45200D03*
Y-55200D03*
Y-5200D03*
Y-15200D03*
Y-25200D03*
Y24800D03*
Y14800D03*
Y4800D03*
Y54800D03*
Y44800D03*
Y34800D03*
Y64800D03*
X83300Y-112300D03*
X123300D03*
X136300Y-78600D03*
X133000Y-55300D03*
Y-45300D03*
Y-35300D03*
Y-25300D03*
Y-15300D03*
Y-5300D03*
Y4700D03*
Y14700D03*
Y24700D03*
Y34700D03*
Y44700D03*
Y54700D03*
Y64700D03*
Y74700D03*
Y84700D03*
Y94700D03*
X168300Y-132000D03*
Y-112000D03*
X176300Y-78600D03*
X284000Y46400D03*
Y71400D03*
G54D11*
X-165100Y-47100D03*
Y-29100D03*
X-139100D03*
Y-47100D03*
X284000Y21400D03*
G54D12*
X-145900Y70500D03*
X284000Y96400D03*
G54D13*
X-44000Y-180000D03*
X-22000D03*
X-33000D03*
X284000Y-3600D03*
G54D14*
G01X-196800Y-196800D02*
Y196800D01*
X196800D01*
Y-196800D01*
X-196800D01*
G01X239100Y-16100D02*
Y183900D01*
X722700D01*
Y-16100D01*
X239100D01*
G01Y8900D02*
X722700D01*
G01X239100Y58900D02*
X722700D01*
G01X239100Y33900D02*
X722700D01*
G01X239100Y83900D02*
X722700D01*
G01X250000Y115200D02*
Y127700D01*
X255900D01*
G01X253700Y121700D02*
X250000D01*
G01X263500Y127700D02*
X267200D01*
G01X265300D02*
Y115200D01*
G01X263500D02*
X267200D01*
G01X278700Y121400D02*
X281800D01*
Y117700D01*
X280900Y116400D01*
X279800Y115600D01*
X278200Y115200D01*
X276700Y115600D01*
X275600Y116400D01*
X274600Y117700D01*
X274000Y119200D01*
X273700Y120800D01*
Y122300D01*
X274000Y123500D01*
X274600Y125000D01*
X275600Y126200D01*
X276500Y127100D01*
X277700Y127700D01*
X278800D01*
X280100Y127300D01*
X281000Y126400D01*
G01X286700Y127700D02*
Y118700D01*
X287400Y116900D01*
X288600Y115600D01*
X290100Y115200D01*
X291700Y115600D01*
X292900Y116900D01*
X293600Y118700D01*
Y127700D01*
G01X299400Y115200D02*
Y127700D01*
X303300D01*
X304600Y127100D01*
X305300Y126200D01*
X305700Y124600D01*
X305300Y122900D01*
X304400Y121900D01*
X303300Y121200D01*
X299400D01*
G01X303300D02*
X305700Y115200D01*
G01X318100D02*
X311800D01*
Y127700D01*
X318100D01*
G01X315600Y121700D02*
X311800D01*
G01X239100Y108900D02*
X722700D01*
G01X239100Y133900D02*
X722700D01*
G01X239100Y158900D02*
X722700D01*
G01X329000Y133900D02*
Y-16100D01*
G01X322400Y165200D02*
Y177700D01*
X325500D01*
X326800Y177100D01*
X327700Y176200D01*
X328500Y175000D01*
X329100Y173500D01*
X329300Y171400D01*
X329100Y169400D01*
X328500Y167900D01*
X327700Y166700D01*
X326800Y165800D01*
X325500Y165200D01*
X322400D01*
G01X335100D02*
Y177700D01*
X339000D01*
X340300Y177100D01*
X341000Y176200D01*
X341400Y174600D01*
X341000Y172900D01*
X340100Y171900D01*
X339000Y171200D01*
X335100D01*
G01X339000D02*
X341400Y165200D01*
G01X348800Y177700D02*
X352500D01*
G01X350600D02*
Y165200D01*
G01X348800D02*
X352500D01*
G01X359900Y177700D02*
Y165200D01*
X366200D01*
G01X372300Y177700D02*
Y165200D01*
X378600D01*
G01X403700Y176700D02*
X402700Y177300D01*
X401600Y177700D01*
X400400D01*
X399000Y177100D01*
X397900Y176000D01*
X397100Y174800D01*
X396500Y172700D01*
X396400Y170800D01*
X396700Y168900D01*
X397100Y167700D01*
X398100Y166400D01*
X399200Y165600D01*
X400200Y165200D01*
X401300D01*
X402400Y165600D01*
X403400Y166200D01*
X404100Y167100D01*
G01X409400Y165200D02*
Y177700D01*
G01X415900D02*
Y165200D01*
G01Y171400D02*
X409400D01*
G01X421200Y165200D02*
X425000Y177700D01*
X428900Y165200D01*
G01X427500Y169600D02*
X422600D01*
G01X434300Y165200D02*
Y177700D01*
X438200D01*
X439500Y177100D01*
X440200Y176200D01*
X440600Y174600D01*
X440200Y172900D01*
X439300Y171900D01*
X438200Y171200D01*
X434300D01*
G01X438200D02*
X440600Y165200D01*
G01X449800Y177700D02*
Y165200D01*
G01X446300Y177700D02*
X453400D01*
G01X462200Y164800D02*
X461900Y165000D01*
Y165400D01*
X462200Y165600D01*
X462600Y165400D01*
Y165000D01*
X462200Y164800D01*
G01Y170400D02*
X461900Y170600D01*
Y171000D01*
X462200Y171200D01*
X462600Y171000D01*
Y170600D01*
X462200Y170400D01*
G01X487000Y177700D02*
Y165200D01*
G01X483500Y177700D02*
X490600D01*
G01X499400Y165200D02*
X498200Y165400D01*
X497100Y166200D01*
X496200Y167500D01*
X495600Y168900D01*
X495300Y170600D01*
Y172300D01*
X495600Y174000D01*
X496200Y175400D01*
X497100Y176700D01*
X498200Y177500D01*
X499400Y177700D01*
X500700Y177500D01*
X501800Y176700D01*
X502700Y175400D01*
X503300Y174000D01*
X503600Y172300D01*
Y170600D01*
X503300Y168900D01*
X502700Y167500D01*
X501800Y166200D01*
X500700Y165400D01*
X499400Y165200D01*
G01X508700D02*
Y177700D01*
X512500D01*
X513700Y177100D01*
X514600Y175600D01*
X515000Y174000D01*
X514600Y172300D01*
X513900Y171000D01*
X512500Y170400D01*
X508700D01*
G01X536600Y177700D02*
Y165200D01*
G01X534500Y173500D02*
X538800D01*
G01X549000Y165200D02*
X548100Y165400D01*
X547200Y166200D01*
X546600Y167700D01*
X546300Y169400D01*
X546600Y171000D01*
X547200Y172500D01*
X548100Y173300D01*
X549000Y173500D01*
X550000Y173300D01*
X550900Y172500D01*
X551500Y171000D01*
X551700Y169400D01*
X551500Y167700D01*
X550900Y166200D01*
X550000Y165400D01*
X549000Y165200D01*
G01X575100Y171900D02*
X575700Y172500D01*
X576200Y173500D01*
X576500Y175000D01*
X576200Y176200D01*
X575600Y177100D01*
X574500Y177700D01*
X570300D01*
Y165200D01*
X575400D01*
X576500Y166000D01*
X577100Y167300D01*
X577400Y168700D01*
X577100Y170200D01*
X576200Y171400D01*
X575100Y171900D01*
X570300D01*
G01X586200Y165200D02*
X585000Y165400D01*
X583900Y166200D01*
X583000Y167500D01*
X582400Y168900D01*
X582100Y170600D01*
Y172300D01*
X582400Y174000D01*
X583000Y175400D01*
X583900Y176700D01*
X585000Y177500D01*
X586200Y177700D01*
X587500Y177500D01*
X588600Y176700D01*
X589500Y175400D01*
X590100Y174000D01*
X590400Y172300D01*
Y170600D01*
X590100Y168900D01*
X589500Y167500D01*
X588600Y166200D01*
X587500Y165400D01*
X586200Y165200D01*
G01X598600Y177700D02*
Y165200D01*
G01X595100Y177700D02*
X602200D01*
G01X611000D02*
Y165200D01*
G01X607500Y177700D02*
X614600D01*
G01X623400Y165200D02*
X622200Y165400D01*
X621100Y166200D01*
X620200Y167500D01*
X619600Y168900D01*
X619300Y170600D01*
Y172300D01*
X619600Y174000D01*
X620200Y175400D01*
X621100Y176700D01*
X622200Y177500D01*
X623400Y177700D01*
X624700Y177500D01*
X625800Y176700D01*
X626700Y175400D01*
X627300Y174000D01*
X627600Y172300D01*
Y170600D01*
X627300Y168900D01*
X626700Y167500D01*
X625800Y166200D01*
X624700Y165400D01*
X623400Y165200D01*
G01X631800D02*
Y177700D01*
X635800Y167300D01*
X639900Y177700D01*
Y165200D01*
G01X353000Y140200D02*
X356800Y152700D01*
X360700Y140200D01*
G01X359300Y144600D02*
X354400D01*
G01X366100Y152700D02*
Y140200D01*
X372400D01*
G01X378500Y152700D02*
Y140200D01*
X384800D01*
G01X403000Y152700D02*
Y143700D01*
X403700Y141900D01*
X404900Y140600D01*
X406400Y140200D01*
X408000Y140600D01*
X409200Y141900D01*
X409900Y143700D01*
Y152700D01*
G01X415300Y140200D02*
Y152700D01*
X422400Y140200D01*
Y152700D01*
G01X429400D02*
X433100D01*
G01X431200D02*
Y140200D01*
G01X429400D02*
X433100D01*
G01X443600Y152700D02*
Y140200D01*
G01X440100Y152700D02*
X447200D01*
G01X452800Y141900D02*
X454000Y140800D01*
X455400Y140200D01*
X456700D01*
X457900Y140800D01*
X458800Y141900D01*
X459300Y143300D01*
X459000Y144800D01*
X458200Y146000D01*
X456800Y146900D01*
X455000Y147300D01*
X453900Y148100D01*
X453400Y149600D01*
X453700Y151000D01*
X454500Y152100D01*
X455600Y152700D01*
X456700D01*
X457800Y152300D01*
X458700Y151200D01*
G01X477000Y140200D02*
X480800Y152700D01*
X484700Y140200D01*
G01X483300Y144600D02*
X478400D01*
G01X490100Y140200D02*
Y152700D01*
X494000D01*
X495300Y152100D01*
X496000Y151200D01*
X496400Y149600D01*
X496000Y147900D01*
X495100Y146900D01*
X494000Y146200D01*
X490100D01*
G01X494000D02*
X496400Y140200D01*
G01X508800D02*
X502500D01*
Y152700D01*
X508800D01*
G01X506300Y146700D02*
X502500D01*
G01X528600Y152700D02*
X532300D01*
G01X530400D02*
Y140200D01*
G01X528600D02*
X532300D01*
G01X539300D02*
Y152700D01*
X546400Y140200D01*
Y152700D01*
G01X563600Y140200D02*
Y152700D01*
X567600Y142300D01*
X571700Y152700D01*
Y140200D01*
G01X578200Y152700D02*
X581900D01*
G01X580000D02*
Y140200D01*
G01X578200D02*
X581900D01*
G01X589300Y152700D02*
Y140200D01*
X595600D01*
G01X601600Y141900D02*
X602800Y140800D01*
X604200Y140200D01*
X605500D01*
X606700Y140800D01*
X607600Y141900D01*
X608100Y143300D01*
X607800Y144800D01*
X607000Y146000D01*
X605600Y146900D01*
X603800Y147300D01*
X602700Y148100D01*
X602200Y149600D01*
X602500Y151000D01*
X603300Y152100D01*
X604400Y152700D01*
X605500D01*
X606600Y152300D01*
X607500Y151200D01*
G01X406800Y-9800D02*
Y2700D01*
X401100Y-6300D01*
X408800D01*
G01X419200Y-9800D02*
Y2700D01*
X413500Y-6300D01*
X421200D01*
G01X429700Y-10200D02*
X429400Y-10000D01*
Y-9600D01*
X429700Y-9400D01*
X430100Y-9600D01*
Y-10000D01*
X429700Y-10200D01*
G01X442100Y2700D02*
X440900Y2300D01*
X440000Y1200D01*
X439400Y0D01*
X438900Y-1700D01*
X438700Y-3600D01*
X438900Y-5400D01*
X439400Y-7100D01*
X440000Y-8300D01*
X440900Y-9400D01*
X442100Y-9800D01*
X443400Y-9400D01*
X444300Y-8300D01*
X444900Y-7100D01*
X445400Y-5400D01*
X445600Y-3600D01*
X445400Y-1700D01*
X444900Y0D01*
X444300Y1200D01*
X443400Y2300D01*
X442100Y2700D01*
G01X406800Y15200D02*
Y27700D01*
X401100Y18700D01*
X408800D01*
G01X417300Y27700D02*
X416100Y27300D01*
X415200Y26200D01*
X414600Y25000D01*
X414100Y23300D01*
X413900Y21400D01*
X414100Y19600D01*
X414600Y17900D01*
X415200Y16700D01*
X416100Y15600D01*
X417300Y15200D01*
X418600Y15600D01*
X419500Y16700D01*
X420100Y17900D01*
X420600Y19600D01*
X420800Y21400D01*
X420600Y23300D01*
X420100Y25000D01*
X419500Y26200D01*
X418600Y27300D01*
X417300Y27700D01*
G01X429700Y14800D02*
X429400Y15000D01*
Y15400D01*
X429700Y15600D01*
X430100Y15400D01*
Y15000D01*
X429700Y14800D01*
G01X442100Y27700D02*
X440900Y27300D01*
X440000Y26200D01*
X439400Y25000D01*
X438900Y23300D01*
X438700Y21400D01*
X438900Y19600D01*
X439400Y17900D01*
X440000Y16700D01*
X440900Y15600D01*
X442100Y15200D01*
X443400Y15600D01*
X444300Y16700D01*
X444900Y17900D01*
X445400Y19600D01*
X445600Y21400D01*
X445400Y23300D01*
X444900Y25000D01*
X444300Y26200D01*
X443400Y27300D01*
X442100Y27700D01*
G01X401500Y42700D02*
X402500Y41200D01*
X403700Y40400D01*
X405100Y40200D01*
X406300Y40400D01*
X407600Y41400D01*
X408400Y42700D01*
X408500Y43900D01*
X408200Y45400D01*
X407100Y46400D01*
X406000Y46900D01*
X404600D01*
G01X406000D02*
X407000Y47500D01*
X407700Y48500D01*
X408100Y49800D01*
X407700Y51000D01*
X407000Y52100D01*
X405600Y52700D01*
X404200Y52500D01*
X402800Y51700D01*
G01X414400Y50600D02*
X415300Y51900D01*
X416400Y52500D01*
X417700Y52700D01*
X419200Y52300D01*
X420300Y51200D01*
X420600Y50000D01*
X420500Y48700D01*
X419800Y47700D01*
X416700Y45600D01*
X415300Y44200D01*
X414400Y42100D01*
X414100Y40200D01*
X420600D01*
G01X429700Y39800D02*
X429400Y40000D01*
Y40400D01*
X429700Y40600D01*
X430100Y40400D01*
Y40000D01*
X429700Y39800D01*
G01X442100Y52700D02*
X440900Y52300D01*
X440000Y51200D01*
X439400Y50000D01*
X438900Y48300D01*
X438700Y46400D01*
X438900Y44600D01*
X439400Y42900D01*
X440000Y41700D01*
X440900Y40600D01*
X442100Y40200D01*
X443400Y40600D01*
X444300Y41700D01*
X444900Y42900D01*
X445400Y44600D01*
X445600Y46400D01*
X445400Y48300D01*
X444900Y50000D01*
X444300Y51200D01*
X443400Y52300D01*
X442100Y52700D01*
G01X404900Y90200D02*
Y102700D01*
X403100Y100200D01*
G01Y90200D02*
X406800D01*
G01X413900Y92700D02*
X414900Y91200D01*
X416100Y90400D01*
X417500Y90200D01*
X418700Y90400D01*
X420000Y91400D01*
X420800Y92700D01*
X420900Y93900D01*
X420600Y95400D01*
X419500Y96400D01*
X418400Y96900D01*
X417000D01*
G01X418400D02*
X419400Y97500D01*
X420100Y98500D01*
X420500Y99800D01*
X420100Y101000D01*
X419400Y102100D01*
X418000Y102700D01*
X416600Y102500D01*
X415200Y101700D01*
G01X429700Y89800D02*
X429400Y90000D01*
Y90400D01*
X429700Y90600D01*
X430100Y90400D01*
Y90000D01*
X429700Y89800D01*
G01X442100Y102700D02*
X440900Y102300D01*
X440000Y101200D01*
X439400Y100000D01*
X438900Y98300D01*
X438700Y96400D01*
X438900Y94600D01*
X439400Y92900D01*
X440000Y91700D01*
X440900Y90600D01*
X442100Y90200D01*
X443400Y90600D01*
X444300Y91700D01*
X444900Y92900D01*
X445400Y94600D01*
X445600Y96400D01*
X445400Y98300D01*
X444900Y100000D01*
X444300Y101200D01*
X443400Y102300D01*
X442100Y102700D01*
G01X402000Y75600D02*
X402900Y76900D01*
X404000Y77500D01*
X405300Y77700D01*
X406800Y77300D01*
X407900Y76200D01*
X408200Y75000D01*
X408100Y73700D01*
X407400Y72700D01*
X404300Y70600D01*
X402900Y69200D01*
X402000Y67100D01*
X401700Y65200D01*
X408200D01*
G01X413900Y67100D02*
X414900Y66000D01*
X416000Y65400D01*
X417300Y65200D01*
X418700Y65600D01*
X419800Y66400D01*
X420600Y67900D01*
X420800Y69600D01*
X420500Y71200D01*
X419700Y72300D01*
X418600Y73100D01*
X417500Y73300D01*
X416400Y73100D01*
X415000Y72300D01*
X415500Y77700D01*
X419700D01*
G01X429700Y64800D02*
X429400Y65000D01*
Y65400D01*
X429700Y65600D01*
X430100Y65400D01*
Y65000D01*
X429700Y64800D01*
G01X442100Y77700D02*
X440900Y77300D01*
X440000Y76200D01*
X439400Y75000D01*
X438900Y73300D01*
X438700Y71400D01*
X438900Y69600D01*
X439400Y67900D01*
X440000Y66700D01*
X440900Y65600D01*
X442100Y65200D01*
X443400Y65600D01*
X444300Y66700D01*
X444900Y67900D01*
X445400Y69600D01*
X445600Y71400D01*
X445400Y73300D01*
X444900Y75000D01*
X444300Y76200D01*
X443400Y77300D01*
X442100Y77700D01*
G01X401700Y116900D02*
X402900Y115800D01*
X404300Y115200D01*
X405600D01*
X406800Y115800D01*
X407700Y116900D01*
X408200Y118300D01*
X407900Y119800D01*
X407100Y121000D01*
X405700Y121900D01*
X403900Y122300D01*
X402800Y123100D01*
X402300Y124600D01*
X402600Y126000D01*
X403400Y127100D01*
X404500Y127700D01*
X405600D01*
X406700Y127300D01*
X407600Y126200D01*
G01X415500Y127700D02*
X419200D01*
G01X417300D02*
Y115200D01*
G01X415500D02*
X419200D01*
G01X426800Y127700D02*
X432700D01*
X426800Y115200D01*
X432700D01*
G01X445300D02*
X439000D01*
Y127700D01*
X445300D01*
G01X442800Y121700D02*
X439000D01*
G01X518100Y133900D02*
Y-16100D01*
G01X547400Y-9800D02*
Y2700D01*
X551200D01*
X552400Y2100D01*
X553300Y600D01*
X553700Y-1000D01*
X553300Y-2700D01*
X552600Y-4000D01*
X551200Y-4600D01*
X547400D01*
G01X559800Y2700D02*
Y-9800D01*
X566100D01*
G01X571500D02*
X575300Y2700D01*
X579200Y-9800D01*
G01X577800Y-5400D02*
X572900D01*
G01X587700Y2700D02*
Y-9800D01*
G01X584200Y2700D02*
X591300D01*
G01X603300Y-9800D02*
X597000D01*
Y2700D01*
X603300D01*
G01X600800Y-3300D02*
X597000D01*
G01X609100Y-9800D02*
Y2700D01*
X612200D01*
X613500Y2100D01*
X614400Y1200D01*
X615200Y0D01*
X615800Y-1500D01*
X616000Y-3600D01*
X615800Y-5600D01*
X615200Y-7100D01*
X614400Y-8300D01*
X613500Y-9200D01*
X612200Y-9800D01*
X609100D01*
G01X547400Y15200D02*
Y27700D01*
X551200D01*
X552400Y27100D01*
X553300Y25600D01*
X553700Y24000D01*
X553300Y22300D01*
X552600Y21000D01*
X551200Y20400D01*
X547400D01*
G01X559800Y27700D02*
Y15200D01*
X566100D01*
G01X571500D02*
X575300Y27700D01*
X579200Y15200D01*
G01X577800Y19600D02*
X572900D01*
G01X587700Y27700D02*
Y15200D01*
G01X584200Y27700D02*
X591300D01*
G01X603300Y15200D02*
X597000D01*
Y27700D01*
X603300D01*
G01X600800Y21700D02*
X597000D01*
G01X609100Y15200D02*
Y27700D01*
X612200D01*
X613500Y27100D01*
X614400Y26200D01*
X615200Y25000D01*
X615800Y23500D01*
X616000Y21400D01*
X615800Y19400D01*
X615200Y17900D01*
X614400Y16700D01*
X613500Y15800D01*
X612200Y15200D01*
X609100D01*
G01X547400Y40200D02*
Y52700D01*
X551200D01*
X552400Y52100D01*
X553300Y50600D01*
X553700Y49000D01*
X553300Y47300D01*
X552600Y46000D01*
X551200Y45400D01*
X547400D01*
G01X559800Y52700D02*
Y40200D01*
X566100D01*
G01X571500D02*
X575300Y52700D01*
X579200Y40200D01*
G01X577800Y44600D02*
X572900D01*
G01X587700Y52700D02*
Y40200D01*
G01X584200Y52700D02*
X591300D01*
G01X603300Y40200D02*
X597000D01*
Y52700D01*
X603300D01*
G01X600800Y46700D02*
X597000D01*
G01X609100Y40200D02*
Y52700D01*
X612200D01*
X613500Y52100D01*
X614400Y51200D01*
X615200Y50000D01*
X615800Y48500D01*
X616000Y46400D01*
X615800Y44400D01*
X615200Y42900D01*
X614400Y41700D01*
X613500Y40800D01*
X612200Y40200D01*
X609100D01*
G01X547400Y90200D02*
Y102700D01*
X551200D01*
X552400Y102100D01*
X553300Y100600D01*
X553700Y99000D01*
X553300Y97300D01*
X552600Y96000D01*
X551200Y95400D01*
X547400D01*
G01X559800Y102700D02*
Y90200D01*
X566100D01*
G01X571500D02*
X575300Y102700D01*
X579200Y90200D01*
G01X577800Y94600D02*
X572900D01*
G01X587700Y102700D02*
Y90200D01*
G01X584200Y102700D02*
X591300D01*
G01X603300Y90200D02*
X597000D01*
Y102700D01*
X603300D01*
G01X600800Y96700D02*
X597000D01*
G01X609100Y90200D02*
Y102700D01*
X612200D01*
X613500Y102100D01*
X614400Y101200D01*
X615200Y100000D01*
X615800Y98500D01*
X616000Y96400D01*
X615800Y94400D01*
X615200Y92900D01*
X614400Y91700D01*
X613500Y90800D01*
X612200Y90200D01*
X609100D01*
G01X547400Y65200D02*
Y77700D01*
X551200D01*
X552400Y77100D01*
X553300Y75600D01*
X553700Y74000D01*
X553300Y72300D01*
X552600Y71000D01*
X551200Y70400D01*
X547400D01*
G01X559800Y77700D02*
Y65200D01*
X566100D01*
G01X571500D02*
X575300Y77700D01*
X579200Y65200D01*
G01X577800Y69600D02*
X572900D01*
G01X587700Y77700D02*
Y65200D01*
G01X584200Y77700D02*
X591300D01*
G01X603300Y65200D02*
X597000D01*
Y77700D01*
X603300D01*
G01X600800Y71700D02*
X597000D01*
G01X609100Y65200D02*
Y77700D01*
X612200D01*
X613500Y77100D01*
X614400Y76200D01*
X615200Y75000D01*
X615800Y73500D01*
X616000Y71400D01*
X615800Y69400D01*
X615200Y67900D01*
X614400Y66700D01*
X613500Y65800D01*
X612200Y65200D01*
X609100D01*
G01X547400Y115200D02*
Y127700D01*
X551200D01*
X552400Y127100D01*
X553300Y125600D01*
X553700Y124000D01*
X553300Y122300D01*
X552600Y121000D01*
X551200Y120400D01*
X547400D01*
G01X559800Y127700D02*
Y115200D01*
X566100D01*
G01X571500D02*
X575300Y127700D01*
X579200Y115200D01*
G01X577800Y119600D02*
X572900D01*
G01X587700Y127700D02*
Y115200D01*
G01X584200Y127700D02*
X591300D01*
G01X603300Y115200D02*
X597000D01*
Y127700D01*
X603300D01*
G01X600800Y121700D02*
X597000D01*
G01X609100Y115200D02*
Y127700D01*
X612200D01*
X613500Y127100D01*
X614400Y126200D01*
X615200Y125000D01*
X615800Y123500D01*
X616000Y121400D01*
X615800Y119400D01*
X615200Y117900D01*
X614400Y116700D01*
X613500Y115800D01*
X612200Y115200D01*
X609100D01*
G01X645200Y133900D02*
Y-16100D01*
G01X680500Y-7300D02*
X681500Y-8800D01*
X682700Y-9600D01*
X684100Y-9800D01*
X685300Y-9600D01*
X686600Y-8600D01*
X687400Y-7300D01*
X687500Y-6100D01*
X687200Y-4600D01*
X686100Y-3600D01*
X685000Y-3100D01*
X683600D01*
G01X685000D02*
X686000Y-2500D01*
X686700Y-1500D01*
X687100Y-200D01*
X686700Y1000D01*
X686000Y2100D01*
X684600Y2700D01*
X683200Y2500D01*
X681800Y1700D01*
G01X685800Y15200D02*
Y27700D01*
X680100Y18700D01*
X687800D01*
G01X681000Y50600D02*
X681900Y51900D01*
X683000Y52500D01*
X684300Y52700D01*
X685800Y52300D01*
X686900Y51200D01*
X687200Y50000D01*
X687100Y48700D01*
X686400Y47700D01*
X683300Y45600D01*
X681900Y44200D01*
X681000Y42100D01*
X680700Y40200D01*
X687200D01*
G01X683900Y90200D02*
Y102700D01*
X682100Y100200D01*
G01Y90200D02*
X685800D01*
G01X671500Y65200D02*
Y77700D01*
X669700Y75200D01*
G01Y65200D02*
X673400D01*
G01X683900Y77700D02*
X682700Y77300D01*
X681800Y76200D01*
X681200Y75000D01*
X680700Y73300D01*
X680500Y71400D01*
X680700Y69600D01*
X681200Y67900D01*
X681800Y66700D01*
X682700Y65600D01*
X683900Y65200D01*
X685200Y65600D01*
X686100Y66700D01*
X686700Y67900D01*
X687200Y69600D01*
X687400Y71400D01*
X687200Y73300D01*
X686700Y75000D01*
X686100Y76200D01*
X685200Y77300D01*
X683900Y77700D01*
G01X692900Y67100D02*
X693900Y66000D01*
X695000Y65400D01*
X696300Y65200D01*
X697700Y65600D01*
X698800Y66400D01*
X699600Y67900D01*
X699800Y69600D01*
X699500Y71200D01*
X698700Y72300D01*
X697600Y73100D01*
X696500Y73300D01*
X695400Y73100D01*
X694000Y72300D01*
X694500Y77700D01*
X698700D01*
G01X671500Y115200D02*
X670300Y115400D01*
X669200Y116200D01*
X668300Y117500D01*
X667700Y118900D01*
X667400Y120600D01*
Y122300D01*
X667700Y124000D01*
X668300Y125400D01*
X669200Y126700D01*
X670300Y127500D01*
X671500Y127700D01*
X672800Y127500D01*
X673900Y126700D01*
X674800Y125400D01*
X675400Y124000D01*
X675700Y122300D01*
Y120600D01*
X675400Y118900D01*
X674800Y117500D01*
X673900Y116200D01*
X672800Y115400D01*
X671500Y115200D01*
G01X672800Y118500D02*
X674700Y115200D01*
G01X683900Y127700D02*
Y115200D01*
G01X680400Y127700D02*
X687500D01*
G01X696300Y115200D02*
Y120800D01*
X693200Y127700D01*
G01X699500D02*
X696300Y120800D01*
M02*
