G04 ================== begin FILE IDENTIFICATION RECORD ==================*
G04 Layout Name:  D:/Cadence/Summer_Circruit/worklib/demo/physical/board.brd*
G04 Film Name:    SILK_TOP*
G04 File Format:  Gerber RS274X*
G04 File Origin:  Cadence Allegro 16.6-2015-S108*
G04 Origin Date:  Tue Jul 11 11:17:08 2023*
G04 *
G04 Layer:  REF DES/SILKSCREEN_TOP*
G04 Layer:  PACKAGE GEOMETRY/SILKSCREEN_TOP*
G04 Layer:  BOARD GEOMETRY/OUTLINE*
G04 Layer:  BOARD GEOMETRY/SILKSCREEN_TOP*
G04 *
G04 Offset:    (0 0)*
G04 Mirror:    No*
G04 Mode:      Positive*
G04 Rotation:  0*
G04 FullContactRelief:  No*
G04 UndefLineWidth:     10*
G04 ================== end FILE IDENTIFICATION RECORD ====================*
%FSLAX25Y25*MOIN*%
%IR0*IPPOS*OFA0.00000B0.00000*MIA0B0*SFA1.00000B1.00000*%
%ADD10C,.01*%
%ADD11C,.005*%
%ADD12C,.006*%
%ADD13C,.008*%
G75*
%LPD*%
G75*
G36*
G01X-115900Y-11600D02*
X-100100D01*
G02X-115900I-7900J9600D01*
G37*
G36*
G01X-61300Y-94200D02*
G03X-81200I-9950J-1582D01*
G01Y-123200D01*
G03X-61300I9950J2149D01*
G01X-61200Y-94200D01*
X-61300D01*
G37*
G36*
G01X-92800Y-53400D02*
Y-73400D01*
X-52800D01*
Y-53400D01*
X-92800D01*
G37*
G36*
G01X83300Y-102300D02*
Y-122300D01*
X123300D01*
Y-102300D01*
X83300D01*
G37*
G36*
G01X136300Y-68600D02*
Y-88600D01*
X176300D01*
Y-68600D01*
X136300D01*
G37*
G54D10*
G01X-196800Y-196800D02*
Y196800D01*
X196800D01*
Y-196800D01*
X-196800D01*
G01X-171900Y-172100D02*
Y-142100D01*
X-161900D01*
Y-172100D01*
X-171900D01*
G01X-177200Y-139500D02*
X-176800Y-140200D01*
X-176400Y-140600D01*
X-175800Y-140800D01*
X-175200Y-140600D01*
X-174700Y-140200D01*
X-174200Y-139500D01*
X-174100Y-138700D01*
Y-134500D01*
G01X-170800Y-135500D02*
X-170400Y-134900D01*
X-169800Y-134600D01*
X-169200Y-134500D01*
X-168400Y-134700D01*
X-167900Y-135200D01*
X-167700Y-135900D01*
X-167800Y-136500D01*
X-168100Y-137000D01*
X-169700Y-138100D01*
X-170400Y-138800D01*
X-170800Y-139900D01*
X-171000Y-140800D01*
X-167700D01*
G01X-169800Y-20000D02*
X-169200Y-20500D01*
X-168500Y-20800D01*
X-167800D01*
X-167200Y-20500D01*
X-166700Y-20000D01*
X-166500Y-19200D01*
X-166700Y-18500D01*
X-167100Y-17900D01*
X-167800Y-17400D01*
X-168700Y-17200D01*
X-169200Y-16800D01*
X-169500Y-16100D01*
X-169300Y-15300D01*
X-168900Y-14800D01*
X-168400Y-14500D01*
X-167800D01*
X-167300Y-14700D01*
X-166800Y-15200D01*
G01X-161900Y-20800D02*
Y-14500D01*
X-162800Y-15800D01*
G01Y-20800D02*
X-160900D01*
G01X-174000Y-10000D02*
Y40000D01*
X-164000D01*
Y-10000D01*
X-174000D01*
G01X-177400Y46100D02*
X-177000Y45400D01*
X-176600Y45000D01*
X-176000Y44800D01*
X-175400Y45000D01*
X-174900Y45400D01*
X-174400Y46100D01*
X-174300Y46900D01*
Y51100D01*
G01X-169600Y44800D02*
Y51100D01*
X-170500Y49800D01*
G01Y44800D02*
X-168600D01*
G01X-174000Y160000D02*
Y180000D01*
X-74000D01*
Y160000D01*
X-174000D01*
G01X-168300Y189200D02*
Y184700D01*
X-168000Y183700D01*
X-167300Y183100D01*
X-166600Y182900D01*
X-165800Y183100D01*
X-165100Y183700D01*
X-164800Y184700D01*
Y189200D01*
G01X-162000Y184200D02*
X-161500Y183400D01*
X-160900Y183000D01*
X-160200Y182900D01*
X-159500Y183000D01*
X-158900Y183500D01*
X-158500Y184200D01*
X-158400Y184800D01*
X-158600Y185500D01*
X-159200Y186000D01*
X-159700Y186300D01*
X-160400D01*
G01X-159700D02*
X-159200Y186600D01*
X-158800Y187100D01*
X-158700Y187700D01*
X-158800Y188400D01*
X-159200Y188900D01*
X-159900Y189200D01*
X-160600Y189100D01*
X-161300Y188700D01*
G01X-119700Y-152200D02*
G03I-13500J0D01*
G01X-155700Y-149700D02*
Y-154700D01*
G01X-158200Y-152200D02*
X-153200D01*
G01X-146400Y-137600D02*
Y-131300D01*
X-144800D01*
X-144200Y-131600D01*
X-143700Y-132000D01*
X-143300Y-132700D01*
X-143000Y-133400D01*
X-142900Y-134500D01*
X-143000Y-135500D01*
X-143300Y-136200D01*
X-143700Y-136900D01*
X-144200Y-137300D01*
X-144800Y-137600D01*
X-146400D01*
G01X-138400D02*
Y-131300D01*
X-139300Y-132600D01*
G01Y-137600D02*
X-137400D01*
G01X-101100Y-139100D02*
X-79100D01*
Y-165100D01*
X-101100D01*
Y-139100D01*
G01X-102100Y-120700D02*
G03I-10300J0D01*
G01X-94100Y-109800D02*
X-93800Y-109300D01*
X-93600Y-108800D01*
Y-108100D01*
X-93900Y-107400D01*
X-94400Y-106900D01*
X-95100Y-106500D01*
X-96100Y-106200D01*
X-97100Y-106100D01*
X-98000Y-106200D01*
X-98600Y-106500D01*
X-99300Y-107000D01*
X-99700Y-107500D01*
X-99900Y-108000D01*
Y-108600D01*
X-99700Y-109100D01*
X-99400Y-109600D01*
X-99000Y-110000D01*
G01X-99900Y-114300D02*
X-93600D01*
X-94900Y-113400D01*
G01X-99900D02*
Y-115300D01*
G01X-102100Y-91200D02*
G03I-10300J0D01*
G01X-94100Y-80300D02*
X-93800Y-79800D01*
X-93600Y-79300D01*
Y-78600D01*
X-93900Y-77900D01*
X-94400Y-77400D01*
X-95100Y-77000D01*
X-96100Y-76700D01*
X-97100Y-76600D01*
X-98000Y-76700D01*
X-98600Y-77000D01*
X-99300Y-77500D01*
X-99700Y-78000D01*
X-99900Y-78500D01*
Y-79100D01*
X-99700Y-79600D01*
X-99400Y-80100D01*
X-99000Y-80500D01*
G01X-94600Y-83400D02*
X-94000Y-83800D01*
X-93700Y-84400D01*
X-93600Y-85000D01*
X-93800Y-85800D01*
X-94300Y-86300D01*
X-95000Y-86500D01*
X-95600Y-86400D01*
X-96100Y-86100D01*
X-97200Y-84500D01*
X-97900Y-83800D01*
X-99000Y-83400D01*
X-99900Y-83200D01*
Y-86500D01*
G01X-98200Y-134300D02*
X-97600Y-134800D01*
X-96900Y-135100D01*
X-96200D01*
X-95600Y-134800D01*
X-95100Y-134300D01*
X-94900Y-133500D01*
X-95100Y-132800D01*
X-95500Y-132200D01*
X-96200Y-131700D01*
X-97100Y-131500D01*
X-97600Y-131100D01*
X-97900Y-130400D01*
X-97700Y-129600D01*
X-97300Y-129100D01*
X-96800Y-128800D01*
X-96200D01*
X-95700Y-129000D01*
X-95200Y-129500D01*
G01X-92600Y-128800D02*
X-91500Y-135100D01*
X-90300Y-128800D01*
X-89000Y-135100D01*
X-87900Y-128800D01*
G01X-84000Y-135100D02*
Y-128800D01*
X-84900Y-130100D01*
G01Y-135100D02*
X-83000D01*
G01X-91900Y-47400D02*
Y-41100D01*
X-90000D01*
X-89300Y-41400D01*
X-88900Y-41800D01*
X-88800Y-42700D01*
X-88900Y-43500D01*
X-89400Y-44000D01*
X-90000Y-44400D01*
X-91900D01*
G01X-90000D02*
X-88800Y-47400D01*
G01X-84100D02*
Y-41100D01*
X-85000Y-42400D01*
G01Y-47400D02*
X-83100D01*
G01X-87400Y400D02*
X-87100Y900D01*
X-86900Y1400D01*
Y2100D01*
X-87200Y2800D01*
X-87700Y3300D01*
X-88400Y3700D01*
X-89400Y4000D01*
X-90400Y4100D01*
X-91300Y4000D01*
X-91900Y3700D01*
X-92600Y3200D01*
X-93000Y2700D01*
X-93200Y2200D01*
Y1600D01*
X-93000Y1100D01*
X-92700Y600D01*
X-92300Y200D01*
G01X-93200Y-2600D02*
X-86900D01*
Y-4500D01*
X-87200Y-5100D01*
X-87900Y-5600D01*
X-88800Y-5700D01*
X-89600Y-5600D01*
X-90300Y-5200D01*
X-90600Y-4500D01*
Y-2600D01*
G01X-93200Y-10400D02*
X-86900D01*
X-88200Y-9500D01*
G01X-93200D02*
Y-11400D01*
G01X-54000Y-180000D02*
Y-170000D01*
X-14000D01*
Y-180000D01*
X-54000D01*
G01X-40800Y-134700D02*
X-41300Y-134400D01*
X-41800Y-134200D01*
X-42500D01*
X-43200Y-134500D01*
X-43700Y-135000D01*
X-44100Y-135700D01*
X-44400Y-136700D01*
X-44500Y-137700D01*
X-44400Y-138600D01*
X-44100Y-139200D01*
X-43600Y-139900D01*
X-43100Y-140300D01*
X-42600Y-140500D01*
X-42000D01*
X-41500Y-140300D01*
X-41000Y-140000D01*
X-40600Y-139600D01*
G01X-38000Y-139200D02*
X-37500Y-140000D01*
X-36900Y-140400D01*
X-36200Y-140500D01*
X-35500Y-140400D01*
X-34900Y-139900D01*
X-34500Y-139200D01*
X-34400Y-138600D01*
X-34600Y-137900D01*
X-35200Y-137400D01*
X-35700Y-137100D01*
X-36400D01*
G01X-35700D02*
X-35200Y-136800D01*
X-34800Y-136300D01*
X-34700Y-135700D01*
X-34800Y-135000D01*
X-35200Y-134500D01*
X-35900Y-134200D01*
X-36600Y-134300D01*
X-37300Y-134700D01*
G01X-57500Y-105200D02*
X-51200Y-108500D01*
G01Y-105200D02*
X-57500Y-108500D01*
G01Y-113100D02*
X-51200D01*
X-52500Y-112200D01*
G01X-57500D02*
Y-114100D01*
G01X-10200Y-149000D02*
G03I-10300J0D01*
G01X-26300Y-133200D02*
X28100D01*
Y72800D01*
X-26300D01*
Y-133200D01*
G01X27300Y85300D02*
Y177300D01*
X-28700D01*
Y85300D01*
X27300D01*
G01X25800Y-149000D02*
G03I-10300J0D01*
G01X32700Y-135800D02*
X32200Y-135500D01*
X31700Y-135300D01*
X31000D01*
X30300Y-135600D01*
X29800Y-136100D01*
X29400Y-136800D01*
X29100Y-137800D01*
X29000Y-138800D01*
X29100Y-139700D01*
X29400Y-140300D01*
X29900Y-141000D01*
X30400Y-141400D01*
X30900Y-141600D01*
X31500D01*
X32000Y-141400D01*
X32500Y-141100D01*
X32900Y-140700D01*
G01X38200Y-141600D02*
Y-135300D01*
X35300Y-139800D01*
X39200D01*
G01X48300Y-6300D02*
X43800D01*
X42800Y-6600D01*
X42200Y-7300D01*
X42000Y-8000D01*
X42200Y-8800D01*
X42800Y-9500D01*
X43800Y-9800D01*
X48300D01*
G01X42000Y-14300D02*
X48300D01*
X47000Y-13400D01*
G01X42000D02*
Y-15300D01*
G01X37500Y135300D02*
X33000D01*
X32000Y135000D01*
X31400Y134300D01*
X31200Y133600D01*
X31400Y132800D01*
X32000Y132100D01*
X33000Y131800D01*
X37500D01*
G01X36500Y128700D02*
X37100Y128300D01*
X37400Y127700D01*
X37500Y127100D01*
X37300Y126300D01*
X36800Y125800D01*
X36100Y125600D01*
X35500Y125700D01*
X35000Y126000D01*
X33900Y127600D01*
X33200Y128300D01*
X32100Y128700D01*
X31200Y128900D01*
Y125600D01*
G01X82300Y-97100D02*
Y-90800D01*
X84200D01*
X84900Y-91100D01*
X85300Y-91500D01*
X85400Y-92400D01*
X85300Y-93200D01*
X84800Y-93700D01*
X84200Y-94100D01*
X82300D01*
G01X84200D02*
X85400Y-97100D01*
G01X88700Y-91800D02*
X89100Y-91200D01*
X89700Y-90900D01*
X90300Y-90800D01*
X91100Y-91000D01*
X91600Y-91500D01*
X91800Y-92200D01*
X91700Y-92800D01*
X91400Y-93300D01*
X89800Y-94400D01*
X89100Y-95100D01*
X88700Y-96200D01*
X88500Y-97100D01*
X91800D01*
G01X123000Y-55300D02*
Y94700D01*
X143000D01*
Y-55300D01*
X123000D01*
G01X114000Y102500D02*
X114400Y101800D01*
X114800Y101400D01*
X115400Y101200D01*
X116000Y101400D01*
X116500Y101800D01*
X117000Y102500D01*
X117100Y103300D01*
Y107500D01*
G01X120100Y102500D02*
X120600Y101700D01*
X121200Y101300D01*
X121900Y101200D01*
X122600Y101300D01*
X123200Y101800D01*
X123600Y102500D01*
X123700Y103100D01*
X123500Y103800D01*
X122900Y104300D01*
X122400Y104600D01*
X121700D01*
G01X122400D02*
X122900Y104900D01*
X123300Y105400D01*
X123400Y106000D01*
X123300Y106700D01*
X122900Y107200D01*
X122200Y107500D01*
X121500Y107400D01*
X120800Y107000D01*
G01X112600Y153300D02*
X113100Y152500D01*
X113700Y152100D01*
X114400Y152000D01*
X115100Y152100D01*
X115700Y152600D01*
X116100Y153300D01*
X116200Y153900D01*
X116000Y154600D01*
X115400Y155100D01*
X114900Y155400D01*
X114200D01*
G01X114900D02*
X115400Y155700D01*
X115800Y156200D01*
X115900Y156800D01*
X115800Y157500D01*
X115400Y158000D01*
X114700Y158300D01*
X114000Y158200D01*
X113300Y157800D01*
G01X119200Y157300D02*
X119600Y157900D01*
X120200Y158200D01*
X120800Y158300D01*
X121600Y158100D01*
X122100Y157600D01*
X122300Y156900D01*
X122200Y156300D01*
X121900Y155800D01*
X120300Y154700D01*
X119600Y154000D01*
X119200Y152900D01*
X119000Y152000D01*
X122300D01*
G01X126900D02*
Y158300D01*
X126000Y157000D01*
G01Y152000D02*
X127900D01*
G01X133200Y158300D02*
X132600Y158100D01*
X132200Y157600D01*
X131800Y156900D01*
X131600Y156100D01*
X131500Y155100D01*
X131600Y154200D01*
X131800Y153400D01*
X132200Y152700D01*
X132600Y152200D01*
X133200Y152000D01*
X133900Y152200D01*
X134300Y152700D01*
X134700Y153400D01*
X134900Y154200D01*
X135000Y155100D01*
X134900Y156100D01*
X134700Y156900D01*
X134300Y157600D01*
X133900Y158100D01*
X133200Y158300D01*
G01X139500Y152000D02*
Y158300D01*
X138600Y157000D01*
G01Y152000D02*
X140500D01*
G01X145800Y158300D02*
X145200Y158100D01*
X144800Y157600D01*
X144400Y156900D01*
X144200Y156100D01*
X144100Y155100D01*
X144200Y154200D01*
X144400Y153400D01*
X144800Y152700D01*
X145200Y152200D01*
X145800Y152000D01*
X146500Y152200D01*
X146900Y152700D01*
X147300Y153400D01*
X147500Y154200D01*
X147600Y155100D01*
X147500Y156100D01*
X147300Y156900D01*
X146900Y157600D01*
X146500Y158100D01*
X145800Y158300D01*
G01X150400Y152900D02*
X150900Y152400D01*
X151400Y152100D01*
X152100Y152000D01*
X152900Y152200D01*
X153400Y152600D01*
X153800Y153400D01*
X153900Y154200D01*
X153700Y155000D01*
X153300Y155600D01*
X152800Y156000D01*
X152200Y156100D01*
X151700Y156000D01*
X151000Y155600D01*
X151200Y158300D01*
X153300D01*
G01X157100Y152700D02*
X157700Y152200D01*
X158300Y152000D01*
X158900Y152200D01*
X159500Y152800D01*
X159900Y153800D01*
X160000Y154700D01*
Y155900D01*
X159900Y156800D01*
X159500Y157700D01*
X159000Y158100D01*
X158400Y158300D01*
X157800Y158100D01*
X157400Y157700D01*
X157000Y157000D01*
X156900Y156200D01*
X157000Y155500D01*
X157400Y154700D01*
X157900Y154300D01*
X158400Y154200D01*
X159100Y154400D01*
X159500Y154900D01*
X160000Y155900D01*
G01X164700Y158300D02*
X164100Y158100D01*
X163700Y157600D01*
X163300Y156900D01*
X163100Y156100D01*
X163000Y155100D01*
X163100Y154200D01*
X163300Y153400D01*
X163700Y152700D01*
X164100Y152200D01*
X164700Y152000D01*
X165400Y152200D01*
X165800Y152700D01*
X166200Y153400D01*
X166400Y154200D01*
X166500Y155100D01*
X166400Y156100D01*
X166200Y156900D01*
X165800Y157600D01*
X165400Y158100D01*
X164700Y158300D01*
G01X169700Y152700D02*
X170300Y152200D01*
X170900Y152000D01*
X171500Y152200D01*
X172100Y152800D01*
X172500Y153800D01*
X172600Y154700D01*
Y155900D01*
X172500Y156800D01*
X172100Y157700D01*
X171600Y158100D01*
X171000Y158300D01*
X170400Y158100D01*
X170000Y157700D01*
X169600Y157000D01*
X169500Y156200D01*
X169600Y155500D01*
X170000Y154700D01*
X170500Y154300D01*
X171000Y154200D01*
X171700Y154400D01*
X172100Y154900D01*
X172600Y155900D01*
G01X175000Y149900D02*
X179700D01*
G01X182000Y152000D02*
X185300Y158300D01*
G01X182000D02*
X185300Y152000D01*
G01X189900D02*
Y154800D01*
X188400Y158300D01*
G01X191500D02*
X189900Y154800D01*
G01X194600Y152000D02*
X197900Y158300D01*
G01X194600D02*
X197900Y152000D01*
G01X181800Y-122000D02*
G03I-13500J0D01*
G01X170800Y-99500D02*
X165800D01*
G01X168300Y-97000D02*
Y-102000D01*
G01X141300Y-63700D02*
Y-57400D01*
X143200D01*
X143900Y-57700D01*
X144300Y-58100D01*
X144400Y-59000D01*
X144300Y-59800D01*
X143800Y-60300D01*
X143200Y-60700D01*
X141300D01*
G01X143200D02*
X144400Y-63700D01*
G01X147400Y-62400D02*
X147900Y-63200D01*
X148500Y-63600D01*
X149200Y-63700D01*
X149900Y-63600D01*
X150500Y-63100D01*
X150900Y-62400D01*
X151000Y-61800D01*
X150800Y-61100D01*
X150200Y-60600D01*
X149700Y-60300D01*
X149000D01*
G01X149700D02*
X150200Y-60000D01*
X150600Y-59500D01*
X150700Y-58900D01*
X150600Y-58200D01*
X150200Y-57700D01*
X149500Y-57400D01*
X148800Y-57500D01*
X148100Y-57900D01*
G01X184700Y-118800D02*
X191000D01*
Y-120400D01*
X190700Y-121000D01*
X190300Y-121500D01*
X189600Y-121900D01*
X188900Y-122200D01*
X187800Y-122300D01*
X186800Y-122200D01*
X186100Y-121900D01*
X185400Y-121500D01*
X185000Y-121000D01*
X184700Y-120400D01*
Y-118800D01*
G01X190000Y-125400D02*
X190600Y-125800D01*
X190900Y-126400D01*
X191000Y-127000D01*
X190800Y-127800D01*
X190300Y-128300D01*
X189600Y-128500D01*
X189000Y-128400D01*
X188500Y-128100D01*
X187400Y-126500D01*
X186700Y-125800D01*
X185600Y-125400D01*
X184700Y-125200D01*
Y-128500D01*
G54D11*
G01X-105300Y14700D02*
X-110100D01*
X-110200Y14800D01*
G01X-107900Y17100D02*
Y12500D01*
X-107800Y12400D01*
G54D12*
G01X-81200Y-123100D02*
G03X-61300Y-123400I9977J1660D01*
G01X-81200Y-94100D02*
Y-123200D01*
X-81100D01*
G01X-61300Y-94100D02*
G03X-81200Y-93800I-9977J-1660D01*
G01X-61300Y-94200D02*
Y-123000D01*
G54D13*
G01X-168600Y-35100D02*
X-158100D01*
G01X-168600Y-41100D02*
X-158100D01*
G01X-135600Y-25600D02*
X-168600D01*
Y-50600D01*
X-135600D01*
Y-25600D01*
G01Y-35100D02*
X-145600D01*
G01X-135600Y-41100D02*
X-146100D01*
G01X-145100Y-38100D02*
G03I-7000J0D01*
G01X-95500Y-2000D02*
G03I-12500J0D01*
M02*
