G04 ================== begin FILE IDENTIFICATION RECORD ==================*
G04 Layout Name:  D:/Cadence/Summer_Circruit/worklib/demo/physical/board.brd*
G04 Film Name:    SOLDERMASK_TOP*
G04 File Format:  Gerber RS274X*
G04 File Origin:  Cadence Allegro 16.6-2015-S108*
G04 Origin Date:  Tue Jul 11 11:20:17 2023*
G04 *
G04 Layer:  PIN/SOLDERMASK_TOP*
G04 Layer:  PACKAGE GEOMETRY/SOLDERMASK_TOP*
G04 Layer:  BOARD GEOMETRY/OUTLINE*
G04 Layer:  BOARD GEOMETRY/SOLDERMASK_TOP*
G04 *
G04 Offset:    (0 0)*
G04 Mirror:    No*
G04 Mode:      Positive*
G04 Rotation:  0*
G04 FullContactRelief:  No*
G04 UndefLineWidth:     10*
G04 ================== end FILE IDENTIFICATION RECORD ====================*
%FSLAX25Y25*MOIN*%
%IR0*IPPOS*OFA0.00000B0.00000*MIA0B0*SFA1.00000B1.00000*%
%ADD10C,.08*%
%ADD14C,.09*%
%ADD11R,.08X.08*%
%ADD13O,.08X.065*%
%ADD12R,.08X.065*%
%ADD15C,.01*%
G75*
%LPD*%
G75*
G54D10*
X-171900Y-162100D03*
Y-152100D03*
X-165100Y-47100D03*
Y-29100D03*
X-174000Y0D03*
Y10000D03*
Y20000D03*
Y30000D03*
X-143200Y-152200D03*
X-139100Y-29100D03*
X-134000Y170000D03*
X-144000D03*
X-154000D03*
X-123200Y-152200D03*
X-100100Y-160100D03*
Y-152100D03*
X-112400Y-128200D03*
X-100100Y-144100D03*
X-112400Y-113200D03*
Y-98700D03*
Y-83700D03*
X-104000Y170000D03*
X-114000D03*
X-124000D03*
X-80100Y-160100D03*
Y-152100D03*
X-71300Y-119000D03*
X-80100Y-144100D03*
X-71300Y-99000D03*
X-92800Y-63400D03*
X-94000Y170000D03*
X-52800Y-63400D03*
X-13000Y-149000D03*
X-28000D03*
X-29100Y-125200D03*
Y-115200D03*
Y-105200D03*
Y-95200D03*
Y-85200D03*
Y-75200D03*
Y-65200D03*
Y-55200D03*
Y-45200D03*
Y-35200D03*
Y-25200D03*
Y-15200D03*
Y-5200D03*
Y4800D03*
Y14800D03*
Y24800D03*
Y34800D03*
Y44800D03*
Y54800D03*
Y64800D03*
X-10700Y82800D03*
X-20700D03*
Y179800D03*
X-10700D03*
X23000Y-149000D03*
X8000D03*
X19300Y82800D03*
X9300D03*
X-700D03*
Y179800D03*
X9300D03*
X19300D03*
X30900Y-125200D03*
Y-95200D03*
Y-105200D03*
Y-115200D03*
Y-65200D03*
Y-75200D03*
Y-85200D03*
Y-35200D03*
Y-45200D03*
Y-55200D03*
Y-5200D03*
Y-15200D03*
Y-25200D03*
Y24800D03*
Y14800D03*
Y4800D03*
Y54800D03*
Y44800D03*
Y34800D03*
Y64800D03*
X83300Y-112300D03*
X123300D03*
X136300Y-78600D03*
X133000Y-55300D03*
Y-45300D03*
Y-35300D03*
Y-25300D03*
Y-15300D03*
Y-5300D03*
Y4700D03*
Y14700D03*
Y24700D03*
Y34700D03*
Y44700D03*
Y54700D03*
Y64700D03*
Y74700D03*
Y84700D03*
Y94700D03*
X168300Y-132000D03*
Y-112000D03*
X176300Y-78600D03*
G54D11*
X-139100Y-47100D03*
G54D12*
X-108000Y3000D03*
G54D13*
Y-7000D03*
G54D14*
X-44000Y-180000D03*
X-22000D03*
X-33000D03*
G54D15*
G01X-196800Y-196800D02*
Y196800D01*
X196800D01*
Y-196800D01*
X-196800D01*
M02*
